HIERARCHY
ROOT Hips
{
    OFFSET 0.000000 0.000000 0.000000
    CHANNELS 6 Xposition Yposition Zposition Zrotation Xrotation Yrotation
    JOINT Spine
    {
        OFFSET -0.000000 7.979263 0.000000
        CHANNELS 3 Zrotation Xrotation Yrotation
        JOINT Spine1
        {
            OFFSET -0.000000 24.719021 0.000000
            CHANNELS 3 Zrotation Xrotation Yrotation
            JOINT Neck
            {
                OFFSET -0.000000 24.617504 2.237955
                CHANNELS 3 Zrotation Xrotation Yrotation
                JOINT Head
                {
                    OFFSET -0.000000 13.623132 -1.946162
                    CHANNELS 3 Zrotation Xrotation Yrotation
                    End Site
                    {
                        OFFSET -0.000000 24.327021 0.000000
                    }
                }
            }
            JOINT LeftShoulder
            {
                OFFSET 3.885773 23.018444 -0.302444
                CHANNELS 3 Zrotation Xrotation Yrotation
                JOINT LeftArm
                {
                    OFFSET 10.447750 0.000000 0.000000
                    CHANNELS 3 Zrotation Xrotation Yrotation
                    JOINT LeftForeArm
                    {
                        OFFSET 29.090096 0.000000 0.000000
                        CHANNELS 3 Zrotation Xrotation Yrotation
                        JOINT LeftHand
                        {
                            OFFSET 28.893339 0.000000 0.000000
                            CHANNELS 3 Zrotation Xrotation Yrotation
                            End Site
                            {
                                OFFSET 14.596213 0.000000 0.000000
                            }
                        }
                    }
                }
            }
            JOINT RightShoulder
            {
                OFFSET -3.864586 23.018444 -0.302444
                CHANNELS 3 Zrotation Xrotation Yrotation
                JOINT RightArm
                {
                    OFFSET -10.447750 0.000000 0.000000
                    CHANNELS 3 Zrotation Xrotation Yrotation
                    JOINT RightForeArm
                    {
                        OFFSET -29.090096 0.000000 0.000000
                        CHANNELS 3 Zrotation Xrotation Yrotation
                        JOINT RightHand
                        {
                            OFFSET -28.893339 0.000000 0.000000
                            CHANNELS 3 Zrotation Xrotation Yrotation
                            End Site
                            {
                                OFFSET -14.596213 0.000000 0.000000
                            }
                        }
                    }
                }
            }
        }
    }
    JOINT LeftUpLeg
    {
        OFFSET 9.730808 0.000000 0.000000
        CHANNELS 3 Zrotation Xrotation Yrotation
        JOINT LeftLeg
        {
            OFFSET -0.000000 -34.800129 0.000000
            CHANNELS 3 Zrotation Xrotation Yrotation
            JOINT LeftFoot
            {
                OFFSET -0.000000 -44.597416 0.000000
                CHANNELS 3 Zrotation Xrotation Yrotation
                JOINT LeftToeBase
                {
                    OFFSET -0.000000 -6.325025 14.596213
                    CHANNELS 3 Zrotation Xrotation Yrotation
                    End Site
                    {
                        OFFSET -0.000000 0.000000 3.892323
                    }
                }
            }
        }
    }
    JOINT RightUpLeg
    {
        OFFSET -9.730808 0.000000 0.000000
        CHANNELS 3 Zrotation Xrotation Yrotation
        JOINT RightLeg
        {
            OFFSET -0.000000 -34.800129 0.000000
            CHANNELS 3 Zrotation Xrotation Yrotation
            JOINT RightFoot
            {
                OFFSET -0.000000 -44.597416 0.000000
                CHANNELS 3 Zrotation Xrotation Yrotation
                JOINT RightToeBase
                {
                    OFFSET -0.000000 -6.325025 14.596213
                    CHANNELS 3 Zrotation Xrotation Yrotation
                    End Site
                    {
                        OFFSET -0.000000 0.000000 3.892323
                    }
                }
            }
        }
    }
}
MOTION
Frames:    7
Frame Time:    0.008333
12.341099    85.536171    51.943005    0.528474    0.503963    90.711533    0.283296    -9.675595    -0.343481    -0.718941    -0.853457    -0.372763    2.084731    24.313272    5.230341    -4.278451    -5.670726    4.789499    13.293879    -1.192536    -10.218161    -13.479981    5.441955    5.735157    1.742320    -0.556512    -1.399851    -1.583612    -0.561988    1.940243    -14.654755    1.114664    -2.731347    14.694181    3.801062    9.074368    -1.267775    0.393590    -0.662760    -4.238121    0.352627    0.911272    1.374382    5.740929    -1.472539    -0.872335    1.345559    0.559711    -1.738835    -5.379050    11.148724    0.000000    0.000000    0.000000    -2.643301    8.436234    -0.390705    2.970152    0.038249    -2.128543    -0.618673    -7.095609    -11.398034    0.000000    0.000000    0.000000    
12.335766    85.536743    51.946430    0.524676    0.505601    90.714844    0.269649    -9.674920    -0.338060    -0.710831    -0.850406    -0.366184    2.130877    24.363403    5.217456    -4.334854    -5.734190    4.767690    13.312189    -1.190805    -10.230809    -13.497153    5.418345    5.734959    1.761721    -0.530540    -1.395265    -1.651292    -0.536946    1.921222    -14.645182    1.130266    -2.766487    14.680375    3.789004    9.081751    -1.259208    0.395941    -0.662863    -4.231798    0.355985    0.887248    1.369071    5.725152    -1.482556    -0.861078    1.352416    0.568079    -1.739856    -5.368182    11.155128    0.000000    0.000000    0.000000    -2.648038    8.423694    -0.357934    2.980956    0.048703    -2.145757    -0.629783    -7.100512    -11.415518    0.000000    0.000000    0.000000    
12.333125    85.537140    51.954247    0.530107    0.501681    90.725212    0.258150    -9.660473    -0.346185    -0.703016    -0.863724    -0.373405    2.133679    24.402767    5.223373    -4.330519    -5.760545    4.774762    13.318466    -1.171463    -10.233350    -13.487863    5.369894    5.740764    1.711033    -0.551697    -1.410314    -1.463963    -0.556589    2.019440    -14.622215    1.151974    -2.761516    14.658591    3.762441    9.071649    -1.253971    0.402755    -0.661212    -4.256662    0.362513    0.888278    1.388381    5.726292    -1.494623    -0.876778    1.360101    0.490928    -1.745293    -5.389827    11.234811    0.000000    0.000000    0.000000    -2.629379    8.441237    -0.379454    2.970452    0.023454    -2.182472    -0.633270    -7.087853    -11.376785    0.000000    0.000000    0.000000    
12.328654    85.536865    51.957840    0.527961    0.503195    90.720108    0.247900    -9.673480    -0.349139    -0.674520    -0.829571    -0.375100    2.081089    24.438828    5.238938    -4.316025    -5.832657    4.787704    13.275050    -1.202865    -10.212113    -13.464652    5.398945    5.747091    1.723400    -0.551097    -1.415418    -1.483382    -0.556137    2.022253    -14.675610    1.133930    -2.776087    14.696417    3.766203    9.081015    -1.265566    0.412302    -0.667561    -4.277155    0.372495    0.872162    1.387317    5.719337    -1.485740    -0.876077    1.362069    0.553399    -1.757994    -5.388021    11.168460    0.000000    0.000000    0.000000    -2.642290    8.428156    -0.329231    2.991874    0.037841    -2.152855    -0.652921    -7.094971    -11.447365    0.000000    0.000000    0.000000    
12.324222    85.537163    51.961838    0.520928    0.502539    90.722672    0.263350    -9.676388    -0.352162    -0.716382    -0.831098    -0.379806    2.124325    24.479036    5.246670    -4.342434    -5.865595    4.793746    13.314380    -1.185607    -10.197208    -13.472727    5.372096    5.737946    1.786395    -0.482295    -1.428607    -1.731121    -0.491051    2.051069    -14.642974    1.136885    -2.766666    14.690588    3.729984    9.067258    -1.264825    0.430791    -0.673631    -4.297474    0.389409    0.906586    1.391111    5.707831    -1.481268    -0.877611    1.361585    0.519840    -1.744938    -5.378286    11.200150    0.000000    0.000000    0.000000    -2.633299    8.422794    -0.356188    2.982813    0.026355    -2.153007    -0.644662    -7.088665    -11.426398    0.000000    0.000000    0.000000    
12.318190    85.537048    51.966537    0.515945    0.506678    90.725487    0.262308    -9.685818    -0.354960    -0.735441    -0.812724    -0.382391    2.142612    24.518824    5.254312    -4.357118    -5.916265    4.799294    13.341054    -1.194545    -10.194937    -13.485886    5.368980    5.739523    1.796150    -0.484281    -1.412092    -1.738489    -0.493129    2.035808    -14.624784    1.135739    -2.755804    14.683143    3.727139    9.041632    -1.262936    0.411373    -0.661485    -4.382954    0.371901    0.842141    1.389373    5.692708    -1.467082    -0.875496    1.374337    0.505667    -1.738822    -5.382480    11.196160    0.000000    0.000000    0.000000    -2.645551    8.406438    -0.314139    3.000888    0.045246    -2.145802    -0.661421    -7.102417    -11.467149    0.000000    0.000000    0.000000    
12.314996    85.537216    51.970982    0.516076    0.502982    90.721474    0.264708    -9.685196    -0.360808    -0.725675    -0.806249    -0.388369    2.099360    24.566322    5.279483    -4.337695    -5.969585    4.824789    13.309464    -1.187433    -10.172416    -13.461810    5.393394    5.739888    1.800526    -0.511608    -1.407400    -1.727734    -0.520251    2.027997    -14.655969    1.126829    -2.753201    14.703437    3.706238    9.044162    -1.277949    0.392504    -0.639745    -4.319530    0.357403    0.744216    1.398008    5.690375    -1.472445    -0.879465    1.370111    0.557135    -1.748044    -5.377466    11.151674    0.000000    0.000000    0.000000    -2.628154    8.398475    -0.396391    2.980181    0.055377    -2.099962    -0.633190    -7.106522    -11.425180    0.000000    0.000000    0.000000    
